# Blender v2.71 (sub 0) OBJ File: ''
# www.blender.org
o Box001_Box001Mesh
v -0.219771 -0.219771 0.254000
v 0.219771 -0.254000 0.219771
v -0.254000 -0.219771 -0.219771
v 0.219771 -0.254000 -0.219771
v -0.219771 0.219771 0.254000
v 0.254000 0.219771 0.219771
v -0.254000 0.219771 -0.219771
v 0.219771 0.219771 -0.254000
v -0.254000 -0.219771 0.219771
v -0.219771 -0.254000 0.219771
v 0.254000 -0.219771 0.219771
v 0.219771 -0.219771 0.254000
v -0.219771 -0.219771 -0.254000
v -0.219771 -0.254000 -0.219771
v 0.219771 -0.219771 -0.254000
v 0.254000 -0.219771 -0.219771
v -0.219771 0.254000 0.219771
v -0.254000 0.219771 0.219771
v 0.219771 0.254000 0.219771
v 0.219771 0.219771 0.254000
v -0.219771 0.254000 -0.219771
v -0.219771 0.219771 -0.254000
v 0.219771 0.254000 -0.219771
v 0.254000 0.219771 -0.219771
v -0.169065 -0.254000 0.169065
v -0.169065 -0.254000 -0.169065
v 0.169065 -0.254000 -0.169065
v 0.169065 -0.254000 0.169065
v -0.169065 0.254000 0.169065
v 0.169065 0.254000 0.169065
v 0.169065 0.254000 -0.169065
v -0.169065 0.254000 -0.169065
v 0.169065 -0.169065 0.254000
v 0.169065 0.169065 0.254000
v -0.169065 0.169065 0.254000
v -0.169065 -0.169065 0.254000
v 0.254000 -0.169065 -0.169065
v 0.254000 0.169065 -0.169065
v 0.254000 0.169065 0.169065
v 0.254000 -0.169065 0.169065
v -0.169065 -0.169065 -0.254000
v -0.169065 0.169065 -0.254000
v 0.169065 0.169065 -0.254000
v 0.169065 -0.169065 -0.254000
v -0.254000 -0.169065 -0.169065
v -0.254000 -0.169065 0.169065
v -0.254000 0.169065 0.169065
v -0.254000 0.169065 -0.169065
v -0.169065 -0.216490 0.169065
v -0.169065 -0.216490 -0.169065
v 0.169065 -0.216490 -0.169065
v 0.169065 -0.216490 0.169065
v -0.169065 0.216489 0.169065
v 0.169065 0.216489 0.169065
v 0.169065 0.216489 -0.169065
v -0.169065 0.216489 -0.169065
v 0.169065 -0.169065 0.216489
v 0.169065 0.169065 0.216489
v -0.169065 0.169065 0.216489
v -0.169065 -0.169065 0.216489
v 0.216489 -0.169065 -0.169065
v 0.216489 0.169065 -0.169065
v 0.216489 0.169065 0.169065
v 0.216489 -0.169065 0.169065
v -0.169065 -0.169065 -0.216490
v -0.169065 0.169065 -0.216489
v 0.169065 0.169065 -0.216489
v 0.169065 -0.169065 -0.216490
v -0.216489 -0.169065 -0.169065
v -0.216489 -0.169065 0.169065
v -0.216489 0.169065 0.169065
v -0.216489 0.169065 -0.169065
vt 0.038080 0.038080
vt 0.961920 0.038080
vt 0.038080 0.961920
vt 0.961920 0.961920
vt -0.008558 0.065006
vt -0.008558 0.011153
vt -0.008558 0.988847
vt -0.008558 0.934994
vt 0.961920 0.091933
vt 0.038080 0.091933
vt 0.038080 0.908067
vt 0.961920 0.908067
vt 0.091933 0.961920
vt 0.091933 0.038080
vt 0.908067 0.961920
vt 0.908067 0.038080
vn 0.000000 -1.000000 0.000000
vn 0.000000 1.000000 0.000000
vn 0.000000 -0.000000 1.000000
vn 1.000000 -0.000000 0.000000
vn 0.000000 0.000000 -1.000000
vn -1.000000 0.000000 0.000000
vn -0.577400 -0.577400 0.577300
vn 0.577400 -0.577400 0.577300
vn -0.577400 -0.577400 -0.577400
vn 0.577400 -0.577400 -0.577400
vn -0.577400 0.577400 0.577400
vn 0.577400 0.577400 0.577400
vn -0.577300 0.577300 -0.577400
vn 0.577300 0.577300 -0.577400
vn -0.707100 -0.707100 0.000000
vn 0.000000 -0.707100 -0.707100
vn 0.707100 -0.707100 0.000000
vn 0.000000 -0.707100 0.707100
vn 0.000000 0.707100 0.707100
vn 0.707100 0.707100 0.000000
vn 0.000000 0.707100 -0.707100
vn -0.707100 0.707100 0.000000
vn 0.707100 0.000000 0.707100
vn -0.707100 0.000000 0.707100
vn 0.707100 0.000000 -0.707100
vn -0.707100 0.000000 -0.707100
s off
f 52/1/1 49/2/1 51/3/1
f 49/2/1 50/4/1 51/3/1
f 55/4/2 56/3/2 53/1/2
f 55/4/2 53/1/2 54/2/2
f 58/4/3 59/3/3 60/1/3
f 58/4/3 60/1/3 57/2/3
f 62/4/4 63/3/4 64/1/4
f 62/4/4 64/1/4 61/2/4
f 66/4/5 67/3/5 68/1/5
f 66/4/5 68/1/5 65/2/5
f 71/4/6 72/3/6 69/1/6
f 71/4/6 69/1/6 70/2/6
f 1/1/7 9/5/7 10/6/7
f 2/1/8 11/5/8 12/6/8
f 3/1/9 13/5/9 14/6/9
f 4/3/10 15/7/10 16/8/10
f 5/3/11 17/7/11 18/8/11
f 6/3/12 19/7/12 20/8/12
f 7/3/13 21/7/13 22/8/13
f 8/3/14 23/7/14 24/8/14
f 3/1/15 10/9/15 9/2/15
f 10/9/15 3/1/15 14/10/15
f 15/1/16 14/9/16 13/2/16
f 14/9/16 15/1/16 4/10/16
f 2/10/17 4/9/17 11/1/17
f 11/1/17 4/9/17 16/2/17
f 1/1/18 2/9/18 12/2/18
f 2/9/18 1/1/18 10/10/18
f 5/3/19 20/4/19 17/11/19
f 19/12/19 17/11/19 20/4/19
f 23/12/20 19/11/20 24/4/20
f 24/4/20 19/11/20 6/3/20
f 22/4/21 23/11/21 8/3/21
f 23/11/21 22/4/21 21/12/21
f 18/4/22 21/11/22 7/3/22
f 21/11/22 18/4/22 17/12/22
f 20/13/23 12/14/23 6/3/23
f 6/3/23 12/14/23 11/1/23
f 18/4/24 9/2/24 5/15/24
f 5/15/24 9/2/24 1/16/24
f 24/13/25 16/14/25 8/3/25
f 8/3/25 16/14/25 15/1/25
f 22/13/26 13/14/26 7/3/26
f 7/3/26 13/14/26 3/1/26
f 10/2/1 14/4/1 26/4/1
f 10/2/1 26/4/1 25/2/1
f 14/4/1 4/3/1 27/3/1
f 14/4/1 27/3/1 26/4/1
f 4/3/1 2/1/1 28/1/1
f 4/3/1 28/1/1 27/3/1
f 25/2/1 2/1/1 10/2/1
f 2/1/1 25/2/1 28/1/1
f 17/1/2 19/2/2 30/2/2
f 17/1/2 30/2/2 29/1/2
f 19/2/2 23/4/2 31/4/2
f 19/2/2 31/4/2 30/2/2
f 32/3/2 23/4/2 21/3/2
f 23/4/2 32/3/2 31/4/2
f 21/3/2 17/1/2 29/1/2
f 21/3/2 29/1/2 32/3/2
f 12/2/3 20/4/3 34/4/3
f 12/2/3 34/4/3 33/2/3
f 20/4/3 5/3/3 35/3/3
f 20/4/3 35/3/3 34/4/3
f 1/1/3 35/3/3 5/3/3
f 35/3/3 1/1/3 36/1/3
f 1/1/3 12/2/3 33/2/3
f 1/1/3 33/2/3 36/1/3
f 16/2/4 24/4/4 38/4/4
f 16/2/4 38/4/4 37/2/4
f 24/4/4 6/3/4 39/3/4
f 24/4/4 39/3/4 38/4/4
f 11/1/4 39/3/4 6/3/4
f 39/3/4 11/1/4 40/1/4
f 11/1/4 16/2/4 37/2/4
f 11/1/4 37/2/4 40/1/4
f 13/2/5 22/4/5 42/4/5
f 13/2/5 42/4/5 41/2/5
f 22/4/5 8/3/5 43/3/5
f 22/4/5 43/3/5 42/4/5
f 15/1/5 43/3/5 8/3/5
f 43/3/5 15/1/5 44/1/5
f 15/1/5 13/2/5 41/2/5
f 15/1/5 41/2/5 44/1/5
f 3/1/6 9/2/6 46/2/6
f 3/1/6 46/2/6 45/1/6
f 9/2/6 18/4/6 47/4/6
f 9/2/6 47/4/6 46/2/6
f 18/4/6 7/3/6 48/3/6
f 18/4/6 48/3/6 47/4/6
f 3/1/6 48/3/6 7/3/6
f 48/3/6 3/1/6 45/1/6
f 50/4/4 49/2/4 25/2/4
f 50/4/4 25/2/4 26/4/4
f 51/3/3 50/4/3 26/4/3
f 51/3/3 26/4/3 27/3/3
f 52/1/6 51/3/6 27/3/6
f 52/1/6 27/3/6 28/1/6
f 49/2/5 52/1/5 28/1/5
f 49/2/5 28/1/5 25/2/5
f 29/1/5 30/2/5 54/2/5
f 29/1/5 54/2/5 53/1/5
f 30/2/6 31/4/6 55/4/6
f 30/2/6 55/4/6 54/2/6
f 31/4/3 32/3/3 56/3/3
f 31/4/3 56/3/3 55/4/3
f 32/3/4 29/1/4 53/1/4
f 32/3/4 53/1/4 56/3/4
f 58/4/6 33/2/6 34/4/6
f 33/2/6 58/4/6 57/2/6
f 34/4/1 35/3/1 59/3/1
f 34/4/1 59/3/1 58/4/1
f 60/1/4 59/3/4 35/3/4
f 35/3/4 36/1/4 60/1/4
f 57/2/2 60/1/2 36/1/2
f 57/2/2 36/1/2 33/2/2
f 62/4/3 37/2/3 38/4/3
f 37/2/3 62/4/3 61/2/3
f 63/3/1 38/4/1 39/3/1
f 38/4/1 63/3/1 62/4/1
f 64/1/5 63/3/5 39/3/5
f 39/3/5 40/1/5 64/1/5
f 61/2/2 40/1/2 37/2/2
f 40/1/2 61/2/2 64/1/2
f 66/4/4 41/2/4 42/4/4
f 41/2/4 66/4/4 65/2/4
f 67/3/1 66/4/1 42/4/1
f 67/3/1 42/4/1 43/3/1
f 68/1/6 67/3/6 43/3/6
f 43/3/6 44/1/6 68/1/6
f 44/1/2 41/2/2 65/2/2
f 44/1/2 65/2/2 68/1/2
f 70/2/2 69/1/2 45/1/2
f 45/1/2 46/2/2 70/2/2
f 71/4/5 46/2/5 47/4/5
f 46/2/5 71/4/5 70/2/5
f 72/3/1 71/4/1 47/4/1
f 47/4/1 48/3/1 72/3/1
f 69/1/3 72/3/3 48/3/3
f 48/3/3 45/1/3 69/1/3
